<?xml version="1.0" encoding="UTF-8"?>
<svg xmlns="http://www.w3.org/2000/svg" viewBox="0 0 800 300">
    <g fill="#00acd7" >
        <path d="m187.117 118.299h-108.365l-8.669 12.302 115.027-.064z"/>
        <path d="m183.29 143.797h-140.236l-8.918 12.254 147.148-.105z"/>
        <path d="m179.463 169.287h-59.914l-8.056 12.302 65.965-.048z"/>
    </g>
    <g id="svgGroup" stroke-linecap="round" fill-rule="evenodd" fill="#ffffff" transform="matrix(1.136433, 0, 0, 1.136433, 193.232712, 102.464211)"><path d="M 138.623 77.686 L 119.727 77.686 L 131.397 22.364 L 146.485 22.364 L 145.899 30.078 L 146.289 30.078 A 23.323 23.323 0 0 1 148.038 27.457 Q 149.075 26.119 150.219 25.114 A 14.415 14.415 0 0 1 150.293 25.049 A 13.965 13.965 0 0 1 155.249 22.266 A 18.099 18.099 0 0 1 158.493 21.567 A 24.346 24.346 0 0 1 161.524 21.387 A 20.355 20.355 0 0 1 164.988 21.664 Q 167.849 22.159 169.898 23.535 A 12.735 12.735 0 0 1 174.61 29.248 Q 176.123 32.813 176.123 37.11 Q 176.123 39.844 175.782 42.749 Q 175.44 45.655 174.903 48.291 L 168.701 77.686 L 149.805 77.686 L 156.104 47.51 Q 156.301 46.657 156.497 45.484 A 64.45 64.45 0 0 0 156.69 44.263 A 27.989 27.989 0 0 0 156.927 42.123 A 22.109 22.109 0 0 0 156.983 40.576 A 6.526 6.526 0 0 0 156.88 39.381 Q 156.757 38.719 156.484 38.203 A 3.105 3.105 0 0 0 155.908 37.427 A 3.569 3.569 0 0 0 153.324 36.377 A 2.73 2.73 0 0 0 153.321 36.377 A 4.645 4.645 0 0 0 150.986 37.024 A 6.809 6.809 0 0 0 149.781 37.915 Q 148.557 39.033 147.487 41.001 A 21.891 21.891 0 0 0 146.704 42.603 A 28.455 28.455 0 0 0 145.712 45.215 Q 144.928 47.602 144.287 50.684 L 138.623 77.686 Z M 61.426 11.573 L 54.2 26.465 A 60.177 60.177 0 0 0 50.366 24.372 Q 48.586 23.487 46.936 22.841 A 33.835 33.835 0 0 0 45.85 22.437 A 23.616 23.616 0 0 0 37.94 21.094 Q 34.473 21.094 31.568 22.657 A 16.786 16.786 0 0 0 27.135 26.142 A 19.714 19.714 0 0 0 26.392 27.002 A 26.426 26.426 0 0 0 23.371 31.658 A 31.044 31.044 0 0 0 22.534 33.423 A 36.038 36.038 0 0 0 20.471 39.721 A 41.006 41.006 0 0 0 20.142 41.284 A 45.893 45.893 0 0 0 19.336 49.903 A 24.427 24.427 0 0 0 19.579 53.472 Q 20.155 57.361 22.095 59.644 A 8.976 8.976 0 0 0 27.468 62.675 A 13.411 13.411 0 0 0 29.932 62.891 A 33.77 33.77 0 0 0 38.428 61.817 A 53.672 53.672 0 0 0 42.138 60.702 Q 44.069 60.05 46.201 59.196 A 100.173 100.173 0 0 0 47.901 58.496 L 47.901 74.268 A 47.751 47.751 0 0 1 37.329 77.637 A 57.811 57.811 0 0 1 26.416 78.662 A 37.816 37.816 0 0 1 20.147 78.171 Q 15.283 77.353 11.621 75.171 A 21.605 21.605 0 0 1 2.881 65.43 A 30.662 30.662 0 0 1 0.494 57.402 A 41.257 41.257 0 0 1 0 50.879 A 62.433 62.433 0 0 1 1.367 37.989 A 52.742 52.742 0 0 1 5.616 25.611 A 40.429 40.429 0 0 1 12.989 15.113 A 32.784 32.784 0 0 1 23.682 7.837 A 32.204 32.204 0 0 1 31.7 5.615 A 42.604 42.604 0 0 1 37.94 5.176 A 51.831 51.831 0 0 1 44.702 5.597 A 38.993 38.993 0 0 1 50.733 6.861 A 46.17 46.17 0 0 1 61.426 11.573 Z M 321.631 71.582 L 321.241 71.582 L 318.848 77.686 L 303.858 77.686 L 319.922 1.709 L 338.819 1.709 L 336.426 12.989 Q 335.84 16.016 335.034 18.872 A 112.061 112.061 0 0 1 334.235 21.582 A 81.596 81.596 0 0 1 333.448 23.999 A 68.321 68.321 0 0 1 332.928 25.459 Q 332.448 26.757 332.032 27.686 L 332.422 27.686 Q 333.741 26.074 335.157 24.634 A 10.945 10.945 0 0 1 337.956 22.59 A 12.779 12.779 0 0 1 338.575 22.29 A 9.27 9.27 0 0 1 340.493 21.681 Q 341.898 21.387 343.653 21.387 A 15.683 15.683 0 0 1 351.465 23.389 Q 354.984 25.365 357.123 29.888 A 21.577 21.577 0 0 1 357.178 30.005 A 19.799 19.799 0 0 1 358.487 33.922 Q 358.946 35.916 359.154 38.288 A 48.116 48.116 0 0 1 359.326 42.481 A 41.138 41.138 0 0 1 359.095 46.735 A 55.524 55.524 0 0 1 358.399 51.392 A 52.297 52.297 0 0 1 355.542 61.06 A 39.623 39.623 0 0 1 350.684 69.849 A 24.609 24.609 0 0 1 345.246 75.284 A 22.977 22.977 0 0 1 343.799 76.245 A 16.569 16.569 0 0 1 336.055 78.625 A 20.135 20.135 0 0 1 334.815 78.662 A 18.864 18.864 0 0 1 332.029 78.465 A 14.651 14.651 0 0 1 329.785 77.954 A 13.033 13.033 0 0 1 325.935 75.969 A 14.917 14.917 0 0 1 325.562 75.684 A 19.315 19.315 0 0 1 323.652 73.941 Q 322.765 73.023 321.883 71.906 A 32.625 32.625 0 0 1 321.631 71.582 Z M 187.305 56.201 L 191.407 36.573 L 183.887 36.573 L 185.889 27.295 L 196.533 22.998 L 203.223 11.28 L 215.821 11.28 L 213.428 22.364 L 227.491 22.364 L 224.414 36.573 L 210.303 36.573 L 206.201 55.274 Q 205.908 56.69 205.664 58.13 A 25.958 25.958 0 0 0 205.558 58.812 Q 205.452 59.552 205.428 60.09 A 6.812 6.812 0 0 0 205.42 60.401 A 5.064 5.064 0 0 0 205.487 61.256 Q 205.565 61.707 205.732 62.058 A 2.05 2.05 0 0 0 206.275 62.769 A 2.986 2.986 0 0 0 207.543 63.377 A 4.321 4.321 0 0 0 208.496 63.477 A 12.459 12.459 0 0 0 210.213 63.351 Q 211.086 63.229 212.046 62.99 A 22.305 22.305 0 0 0 212.696 62.818 A 43.973 43.973 0 0 0 217.133 61.303 A 48.217 48.217 0 0 0 217.432 61.182 L 217.432 75.391 A 26.982 26.982 0 0 1 213.881 76.82 A 36.298 36.298 0 0 1 210.279 77.783 Q 206.201 78.662 200.83 78.662 A 26.984 26.984 0 0 1 196.751 78.375 Q 192.466 77.718 189.868 75.562 A 9.398 9.398 0 0 1 187.067 71.466 Q 186.133 68.921 186.133 65.381 A 26.406 26.406 0 0 1 186.203 63.517 Q 186.271 62.565 186.404 61.508 A 46.269 46.269 0 0 1 186.499 60.791 A 76.29 76.29 0 0 1 186.834 58.639 Q 187.002 57.655 187.183 56.776 A 45.1 45.1 0 0 1 187.305 56.201 Z M 246.533 77.686 L 227.637 77.686 L 239.307 22.364 L 254.395 22.364 L 253.516 31.592 L 253.907 31.592 Q 256.201 27.686 258.594 25.464 A 14.358 14.358 0 0 1 262.45 22.869 A 13.317 13.317 0 0 1 263.892 22.315 A 19.018 19.018 0 0 1 267.31 21.577 A 25.665 25.665 0 0 1 270.508 21.387 A 21.253 21.253 0 0 1 272.043 21.445 A 25.168 25.168 0 0 1 272.779 21.509 A 22.561 22.561 0 0 1 273.314 21.57 Q 274.046 21.662 274.383 21.767 A 1.768 1.768 0 0 1 274.414 21.778 L 270.313 40.479 Q 269.478 40.137 268.348 39.869 A 21.292 21.292 0 0 0 267.676 39.722 A 15.864 15.864 0 0 0 265.52 39.442 A 19.198 19.198 0 0 0 264.307 39.405 A 12.098 12.098 0 0 0 260.914 39.872 A 11.185 11.185 0 0 0 260.181 40.113 A 9.432 9.432 0 0 0 257.195 41.91 A 11.21 11.21 0 0 0 256.665 42.407 A 11.627 11.627 0 0 0 255.297 44.076 Q 254.514 45.222 253.833 46.704 Q 252.813 48.925 252.039 51.981 A 48.446 48.446 0 0 0 251.709 53.369 L 246.533 77.686 Z M 78.121 78.251 A 30.984 30.984 0 0 0 83.301 78.662 A 36.007 36.007 0 0 0 87.479 78.427 A 28.45 28.45 0 0 0 94.409 76.758 Q 99.366 74.854 103.125 71.436 A 31.346 31.346 0 0 0 109.424 63.477 A 38.371 38.371 0 0 0 113.233 53.638 A 46.879 46.879 0 0 0 114.502 42.676 A 36.041 36.041 0 0 0 114.494 41.888 Q 114.434 39.153 113.955 36.758 A 20.937 20.937 0 0 0 112.012 31.128 Q 109.522 26.367 104.761 23.877 Q 101.934 22.399 98.393 21.798 A 30.984 30.984 0 0 0 93.213 21.387 A 36.007 36.007 0 0 0 89.035 21.622 A 28.45 28.45 0 0 0 82.105 23.291 Q 77.149 25.196 73.389 28.614 A 31.346 31.346 0 0 0 67.09 36.573 A 38.371 38.371 0 0 0 63.282 46.411 A 46.879 46.879 0 0 0 62.012 57.373 A 36.041 36.041 0 0 0 62.021 58.162 Q 62.08 60.897 62.559 63.291 A 20.937 20.937 0 0 0 64.502 68.921 Q 66.992 73.682 71.753 76.172 Q 74.58 77.651 78.121 78.251 Z M 290.235 77.686 L 271.338 77.686 L 283.008 22.364 L 302.002 22.364 L 290.235 77.686 Z M 85.401 64.502 A 4.434 4.434 0 0 0 87.675 63.861 A 6.146 6.146 0 0 0 88.55 63.233 Q 89.891 62.09 91.014 60.176 A 17.766 17.766 0 0 0 91.26 59.741 A 24.286 24.286 0 0 0 92.525 57.041 A 31.144 31.144 0 0 0 93.36 54.663 A 40.916 40.916 0 0 0 94.495 49.977 A 46.733 46.733 0 0 0 94.727 48.584 A 43.289 43.289 0 0 0 95.215 42.09 Q 95.215 39.942 94.702 38.501 A 6.155 6.155 0 0 0 94.26 37.52 Q 93.842 36.786 93.262 36.328 A 3.393 3.393 0 0 0 91.467 35.619 A 4.404 4.404 0 0 0 91.016 35.596 A 4.434 4.434 0 0 0 88.742 36.238 A 6.146 6.146 0 0 0 87.867 36.865 A 10.038 10.038 0 0 0 86.456 38.36 Q 85.868 39.117 85.337 40.052 A 17.4 17.4 0 0 0 85.181 40.332 A 24.403 24.403 0 0 0 83.94 43.003 A 31.91 31.91 0 0 0 83.106 45.386 A 38.574 38.574 0 0 0 82.021 49.89 A 44.477 44.477 0 0 0 81.763 51.49 Q 81.299 54.737 81.299 58.008 A 15.641 15.641 0 0 0 81.384 59.695 Q 81.601 61.691 82.373 62.866 Q 83.448 64.502 85.401 64.502 Z M 330.225 63.477 A 4.449 4.449 0 0 0 332.304 62.947 A 6.158 6.158 0 0 0 333.252 62.329 Q 334.673 61.217 335.864 59.323 A 16.593 16.593 0 0 0 335.938 59.204 A 22.576 22.576 0 0 0 337.284 56.658 A 28.385 28.385 0 0 0 338.086 54.688 A 31.907 31.907 0 0 0 339.392 50.001 A 35.707 35.707 0 0 0 339.527 49.292 A 32.143 32.143 0 0 0 340.039 43.604 A 17.957 17.957 0 0 0 339.947 41.716 Q 339.736 39.729 339.046 38.478 A 5.171 5.171 0 0 0 338.99 38.379 A 3.782 3.782 0 0 0 338.032 37.261 Q 337.262 36.669 336.197 36.586 A 4.581 4.581 0 0 0 335.84 36.573 A 4.596 4.596 0 0 0 333.225 37.393 A 5.625 5.625 0 0 0 333.106 37.476 Q 331.836 38.379 330.786 39.917 A 17.029 17.029 0 0 0 329.584 41.993 A 21.309 21.309 0 0 0 328.931 43.457 A 32.695 32.695 0 0 0 327.635 47.404 A 35.924 35.924 0 0 0 327.564 47.681 Q 327.002 49.903 326.709 52.173 A 35.612 35.612 0 0 0 326.445 55.191 A 30.201 30.201 0 0 0 326.416 56.494 A 17.237 17.237 0 0 0 326.526 58.501 Q 326.644 59.503 326.888 60.342 A 7.821 7.821 0 0 0 327.344 61.548 A 4.023 4.023 0 0 0 328.005 62.544 A 2.888 2.888 0 0 0 330.225 63.477 Z M 294.629 17.09 Q 290.625 17.09 287.964 15.552 A 5.089 5.089 0 0 1 285.491 12.072 A 8.652 8.652 0 0 1 285.303 10.205 Q 285.303 6.885 286.621 4.615 Q 287.94 2.344 290.406 1.172 A 11.548 11.548 0 0 1 293.215 0.275 Q 294.659 0 296.338 0 A 15.463 15.463 0 0 1 299.592 0.327 A 11.719 11.719 0 0 1 302.857 1.538 A 5.139 5.139 0 0 1 305.464 5.224 A 8.579 8.579 0 0 1 305.616 6.885 A 12.758 12.758 0 0 1 305.222 10.138 A 9.317 9.317 0 0 1 302.93 14.282 A 8.268 8.268 0 0 1 299.641 16.344 Q 298.318 16.81 296.691 16.985 A 19.307 19.307 0 0 1 294.629 17.09 Z"/></g>
</svg>
